<?xml version="1.0" standalone="no"?>
<!DOCTYPE svg PUBLIC "-//W3C//DTD SVG 20010904//EN"
 "http://www.w3.org/TR/2001/REC-SVG-20010904/DTD/svg10.dtd">
<svg version="1.0" xmlns="http://www.w3.org/2000/svg"
 width="850.000000pt" height="850.000000pt" viewBox="0 0 850.000000 850.000000"
 preserveAspectRatio="xMidYMid meet">
<metadata>
Created by potrace 1.11, written by Peter Selinger 2001-2013
</metadata>
<g transform="translate(0.000000,850.000000) scale(0.100000,-0.100000)"
fill="#000000" stroke="none">
<path d="M1915 6005 c-296 -48 -571 -165 -804 -342 -153 -116 -318 -299 -421
-468 -308 -501 -341 -1133 -86 -1660 254 -527 740 -883 1319 -969 204 -31 477
-16 682 35 625 158 1125 674 1264 1304 67 303 50 637 -46 925 -198 595 -692
1032 -1313 1161 -138 28 -459 36 -595 14z"/>
<path d="M6125 5999 c-1008 -176 -1649 -1176 -1386 -2162 171 -642 674 -1113
1342 -1259 92 -20 132 -22 339 -22 207 0 247 2 340 22 719 156 1245 696 1376
1414 8 46 18 147 21 224 36 872 -584 1637 -1446 1783 -165 28 -426 28 -586 0z"/>
</g>
</svg>
